<mxfile host="app.diagrams.net" modified="2021-12-05T21:40:32.111Z" agent="5.0 (Windows NT 10.0; Win64; x64) AppleWebKit/537.36 (KHTML, like Gecko) Chrome/96.0.4664.45 Safari/537.36" etag="Toau7Eqtd9Rh4K4PJ2Wz" version="15.9.1" type="github">
  <diagram id="Wut4FEcaCLNXJfUI2pUB" name="Page-1">
    <mxGraphModel dx="1422" dy="798" grid="1" gridSize="10" guides="1" tooltips="1" connect="1" arrows="1" fold="1" page="1" pageScale="1" pageWidth="827" pageHeight="1169" math="0" shadow="0">
      <root>
        <mxCell id="0" />
        <mxCell id="1" parent="0" />
        <mxCell id="O-MoOTawZZl3RmmgJ85d-11" style="edgeStyle=orthogonalEdgeStyle;rounded=0;orthogonalLoop=1;jettySize=auto;html=1;exitX=0.5;exitY=1;exitDx=0;exitDy=0;" edge="1" parent="1" source="O-MoOTawZZl3RmmgJ85d-1" target="O-MoOTawZZl3RmmgJ85d-7">
          <mxGeometry relative="1" as="geometry">
            <Array as="points">
              <mxPoint x="130" y="280" />
              <mxPoint x="380" y="280" />
            </Array>
          </mxGeometry>
        </mxCell>
        <mxCell id="O-MoOTawZZl3RmmgJ85d-12" value="01110" style="edgeLabel;html=1;align=center;verticalAlign=middle;resizable=0;points=[];" vertex="1" connectable="0" parent="O-MoOTawZZl3RmmgJ85d-11">
          <mxGeometry x="-0.1736" y="1" relative="1" as="geometry">
            <mxPoint as="offset" />
          </mxGeometry>
        </mxCell>
        <mxCell id="O-MoOTawZZl3RmmgJ85d-14" style="edgeStyle=orthogonalEdgeStyle;rounded=0;orthogonalLoop=1;jettySize=auto;html=1;" edge="1" parent="1" source="O-MoOTawZZl3RmmgJ85d-1" target="O-MoOTawZZl3RmmgJ85d-6">
          <mxGeometry relative="1" as="geometry">
            <Array as="points">
              <mxPoint x="130" y="240" />
              <mxPoint x="490" y="240" />
            </Array>
          </mxGeometry>
        </mxCell>
        <mxCell id="O-MoOTawZZl3RmmgJ85d-15" value="10101" style="edgeLabel;html=1;align=center;verticalAlign=middle;resizable=0;points=[];" vertex="1" connectable="0" parent="O-MoOTawZZl3RmmgJ85d-14">
          <mxGeometry x="0.025" y="3" relative="1" as="geometry">
            <mxPoint as="offset" />
          </mxGeometry>
        </mxCell>
        <mxCell id="O-MoOTawZZl3RmmgJ85d-1" value="user/User1" style="ellipse;whiteSpace=wrap;html=1;" vertex="1" parent="1">
          <mxGeometry x="70" y="130" width="120" height="70" as="geometry" />
        </mxCell>
        <mxCell id="O-MoOTawZZl3RmmgJ85d-2" value="user/User2" style="ellipse;whiteSpace=wrap;html=1;" vertex="1" parent="1">
          <mxGeometry x="240" y="130" width="120" height="80" as="geometry" />
        </mxCell>
        <mxCell id="O-MoOTawZZl3RmmgJ85d-3" value="user/User3" style="ellipse;whiteSpace=wrap;html=1;" vertex="1" parent="1">
          <mxGeometry x="410" y="130" width="120" height="80" as="geometry" />
        </mxCell>
        <mxCell id="O-MoOTawZZl3RmmgJ85d-4" value="user/User4" style="ellipse;whiteSpace=wrap;html=1;" vertex="1" parent="1">
          <mxGeometry x="590" y="130" width="120" height="80" as="geometry" />
        </mxCell>
        <mxCell id="O-MoOTawZZl3RmmgJ85d-5" value="group/Group1" style="ellipse;whiteSpace=wrap;html=1;" vertex="1" parent="1">
          <mxGeometry x="170" y="320" width="120" height="80" as="geometry" />
        </mxCell>
        <mxCell id="O-MoOTawZZl3RmmgJ85d-16" style="edgeStyle=orthogonalEdgeStyle;rounded=0;orthogonalLoop=1;jettySize=auto;html=1;exitX=0.5;exitY=1;exitDx=0;exitDy=0;" edge="1" parent="1" source="O-MoOTawZZl3RmmgJ85d-6">
          <mxGeometry relative="1" as="geometry">
            <mxPoint x="130" y="610" as="targetPoint" />
            <Array as="points">
              <mxPoint x="490" y="580" />
              <mxPoint x="130" y="580" />
            </Array>
          </mxGeometry>
        </mxCell>
        <mxCell id="O-MoOTawZZl3RmmgJ85d-17" value="10001" style="edgeLabel;html=1;align=center;verticalAlign=middle;resizable=0;points=[];" vertex="1" connectable="0" parent="O-MoOTawZZl3RmmgJ85d-16">
          <mxGeometry x="0.0912" relative="1" as="geometry">
            <mxPoint as="offset" />
          </mxGeometry>
        </mxCell>
        <mxCell id="O-MoOTawZZl3RmmgJ85d-6" value="group/Group2" style="ellipse;whiteSpace=wrap;html=1;" vertex="1" parent="1">
          <mxGeometry x="430" y="320" width="120" height="80" as="geometry" />
        </mxCell>
        <mxCell id="O-MoOTawZZl3RmmgJ85d-7" value="space/Space1" style="ellipse;whiteSpace=wrap;html=1;" vertex="1" parent="1">
          <mxGeometry x="320" y="480" width="120" height="80" as="geometry" />
        </mxCell>
        <mxCell id="O-MoOTawZZl3RmmgJ85d-8" value="provider/Provider1" style="ellipse;whiteSpace=wrap;html=1;" vertex="1" parent="1">
          <mxGeometry x="70" y="610" width="120" height="80" as="geometry" />
        </mxCell>
        <mxCell id="O-MoOTawZZl3RmmgJ85d-9" value="provider/Provider2" style="ellipse;whiteSpace=wrap;html=1;" vertex="1" parent="1">
          <mxGeometry x="310" y="620" width="120" height="80" as="geometry" />
        </mxCell>
        <mxCell id="O-MoOTawZZl3RmmgJ85d-10" value="provider/Provider3" style="ellipse;whiteSpace=wrap;html=1;" vertex="1" parent="1">
          <mxGeometry x="580" y="630" width="120" height="80" as="geometry" />
        </mxCell>
        <mxCell id="O-MoOTawZZl3RmmgJ85d-13" value="zone0" style="swimlane;" vertex="1" parent="1">
          <mxGeometry x="30" y="65" width="770" height="685" as="geometry" />
        </mxCell>
      </root>
    </mxGraphModel>
  </diagram>
</mxfile>
